<?xml version="1.0" encoding="UTF-8" standalone="no"?>
<svg
   xmlns:dc="http://purl.org/dc/elements/1.1/"
   xmlns:cc="http://creativecommons.org/ns#"
   xmlns:rdf="http://www.w3.org/1999/02/22-rdf-syntax-ns#"
   xmlns:svg="http://www.w3.org/2000/svg"
   xmlns="http://www.w3.org/2000/svg"
   xmlns:sodipodi="http://sodipodi.sourceforge.net/DTD/sodipodi-0.dtd"
   xmlns:inkscape="http://www.inkscape.org/namespaces/inkscape"
   inkscape:version="1.1-dev (bc69992, 2020-04-15)"
   sodipodi:docname="energy.svg"
   xml:space="preserve"
   style="enable-background:new 0 0 300.145 300.145;"
   viewBox="0 0 300.145 300.145"
   y="0px"
   x="0px"
   id="Capa_1"
   version="1.1"><metadata
   id="metadata996"><rdf:RDF><cc:Work
       rdf:about=""><dc:format>image/svg+xml</dc:format><dc:type
         rdf:resource="http://purl.org/dc/dcmitype/StillImage" /><dc:title></dc:title></cc:Work></rdf:RDF></metadata><defs
   id="defs994" /><sodipodi:namedview
   inkscape:current-layer="g959"
   inkscape:window-maximized="0"
   inkscape:window-y="23"
   inkscape:window-x="0"
   inkscape:cy="141.2447"
   inkscape:cx="121.01434"
   inkscape:zoom="1.2689249"
   showgrid="false"
   id="namedview992"
   inkscape:window-height="956"
   inkscape:window-width="1525"
   inkscape:pageshadow="2"
   inkscape:pageopacity="0"
   guidetolerance="10"
   gridtolerance="10"
   objecttolerance="10"
   borderopacity="1"
   bordercolor="#666666"
   pagecolor="#ffffff" />
<g
   id="g959">
	<path
   style="fill:#000000;fill-opacity:1;stroke:#100000;stroke-width:0;stroke-miterlimit:4;stroke-dasharray:none;stroke-opacity:1"
   id="path953"
   d="m 49.670821,150.12571 c 0,-42.12362 26.07053,-78.266825 62.918579,-93.15125 L 131.39137,19.202857 C 67.296178,28.309781 17.843531,83.545193 17.843531,150.12571 c 0,60.57523 40.934869,111.765 96.588859,127.36266 l 3.61638,-32.1841 C 78.341242,231.90501 49.670821,194.30151 49.670821,150.12571 Z" />
	<path
   style="fill:#000000;fill-opacity:1;stroke:#100000;stroke-width:0;stroke-miterlimit:4;stroke-dasharray:none;stroke-opacity:1"
   id="path955"
   d="m 282.30147,150.12571 c 0,-60.563281 -40.91697,-111.743103 -96.55207,-127.3527 l -3.69793,32.160226 c 39.7304,13.386334 68.4227,51.000774 68.4227,95.192474 0,41.87793 -25.76717,77.84407 -62.27507,92.88865 l -19.32314,38.01631 c 64.03552,-9.15865 113.42551,-64.36721 113.42551,-130.90496 z" />
	<path
   style="fill:#000000;fill-opacity:1;stroke:#100000;stroke-width:0;stroke-miterlimit:4;stroke-dasharray:none;stroke-opacity:1"
   id="path957"
   d="m 225.75829,134.09932 c 1.2532,-2.46598 1.13484,-5.17469 -0.3123,-7.53223 -1.44615,-2.35856 -4.01422,-3.2986 -6.78121,-3.2986 H 158.17205 L 171.19438,10.039232 c 0.44359,-3.8387359 -1.93549,-7.815741 -5.64139,-8.9159331 -0.76485,-0.22680271 -1.53964,-0.33523031 -2.30449,-0.33523031 -2.93806,0 -5.71499,1.67217251 -7.08256,4.41867351 L 74.356863,169.61483 c -1.227339,2.46598 -1.092074,5.74965 0.358058,8.09328 1.451125,2.34263 4.009243,4.25056 6.765288,4.25056 h 59.695071 l -12.23759,108.96775 c -0.42769,3.82382 1.94046,7.03984 5.62646,8.14202 0.7569,0.2268 1.52374,0.28848 2.28062,0.28848 2.93209,0 5.70903,-1.6284 7.09451,-4.35501 z" />
</g>
<g
   id="g961">
</g>
<g
   id="g963">
</g>
<g
   id="g965">
</g>
<g
   id="g967">
</g>
<g
   id="g969">
</g>
<g
   id="g971">
</g>
<g
   id="g973">
</g>
<g
   id="g975">
</g>
<g
   id="g977">
</g>
<g
   id="g979">
</g>
<g
   id="g981">
</g>
<g
   id="g983">
</g>
<g
   id="g985">
</g>
<g
   id="g987">
</g>
<g
   id="g989">
</g>
</svg>
